<svg width="31" height="44" viewBox="0 0 31 44" fill="none" xmlns="http://www.w3.org/2000/svg">
<path d="M8.54736 32.5941C9.83259 34.2159 11.0024 35.9242 12.0483 37.7065C12.9413 39.3829 13.3135 40.5195 13.9661 42.5393C14.3663 43.6553 14.728 43.9884 15.5057 43.9884C16.3531 43.9884 16.7375 43.4217 17.0346 42.5455C17.6514 40.638 18.1354 39.1823 18.8991 37.8068C20.3975 35.1512 22.2594 32.7914 24.0889 30.5234C24.5842 29.8815 27.7864 26.142 29.228 23.1913C29.228 23.1913 30.9998 19.9501 30.9998 15.4234C30.9998 11.189 29.2525 8.25232 29.2525 8.25232L24.2216 9.58623L21.1664 17.5531L20.4106 18.6517L20.2594 18.8507L20.0584 19.0998L19.7055 19.4977L19.2013 19.9968L16.4807 22.1913L9.67886 26.0796L8.54736 32.5941Z" fill="#34A853"/>
<path d="M1.52734 22.6464C3.18742 26.4006 6.38865 29.7007 8.55453 32.5968L20.0586 19.105C20.0586 19.105 18.4378 21.2035 15.4979 21.2035C12.2232 21.2035 9.57766 18.6145 9.57766 15.3499C9.57766 13.1111 10.938 11.5732 10.938 11.5732L3.12881 13.6449L1.52734 22.6464Z" fill="#FBBC04"/>
<path d="M20.187 0.693787C24.0078 1.91344 27.2781 4.47395 29.2561 8.24968L20.0621 19.0972C20.0621 19.0972 21.4224 17.5314 21.4224 15.3066C21.4224 11.9659 18.5812 9.47029 15.5119 9.47029C12.6094 9.47029 10.9424 11.5654 10.9424 11.5654V4.7316L20.187 0.693787Z" fill="#4285F4"/>
<path d="M3.63452 5.48681C5.91653 2.78363 9.932 0 15.4679 0C18.1538 0 20.1773 0.698125 20.1773 0.698125L10.9334 11.5714H4.38409L3.63452 5.48681Z" fill="#1A73E8"/>
<path d="M1.52723 22.6465C1.52723 22.6465 0 19.6854 0 15.3957C0 11.3413 1.5919 7.79736 3.63463 5.48682L10.9388 11.5724L1.52723 22.6465Z" fill="#EA4335"/>
</svg>
