<svg width="50" height="50" viewBox="0 0 50 50" fill="none" xmlns="http://www.w3.org/2000/svg">
<path d="M24.9959 4.16675C18.7293 4.16675 14.6668 8.373 9.8626 9.90633C7.90844 10.5313 6.93135 10.8417 6.53552 11.2813C6.13969 11.7188 6.0251 12.3626 5.79385 13.6459C3.31468 27.3876 8.73135 40.0918 21.648 45.0376C23.0334 45.5688 23.7272 45.8334 25.0022 45.8334C26.2772 45.8334 26.973 45.5668 28.3605 45.0355C41.2751 40.0918 46.6855 27.3876 44.2064 13.6459C43.9751 12.3626 43.8584 11.7188 43.4626 11.2792C43.0668 10.8397 42.0918 10.5292 40.1376 9.90633C35.3314 8.373 31.2626 4.16675 24.9959 4.16675Z" stroke="#2C2B2B" stroke-width="4" stroke-linecap="round" stroke-linejoin="round"/>
<path d="M18.75 27.0833C18.75 27.0833 20.8333 27.0833 22.9167 31.25C22.9167 31.25 29.5354 20.8333 35.4167 18.75" stroke="#2C2B2B" stroke-width="4" stroke-linecap="round" stroke-linejoin="round"/>
</svg>
